<svg width="17" height="16" viewBox="0 0 17 16" fill="none" xmlns="http://www.w3.org/2000/svg">
<g clip-path="url(#clip0_1_50)">
<path d="M4.79675 14.5566C5.17254 15.4057 6.02297 16 7.01011 16C7.99725 16 8.84766 15.4057 9.22348 14.5566H4.79675Z" fill="#67748E"/>
<path d="M7.00985 1.52864C7.66126 1.52864 8.28674 1.64352 8.86719 1.85384V1.78238C8.86719 0.799568 8.06721 0 7.08392 0H6.93613C5.95281 0 5.15283 0.799568 5.15283 1.78238V1.85293C5.73296 1.64324 6.35826 1.52864 7.00985 1.52864Z" fill="#67748E"/>
<path d="M12.8709 13.6176H1.14744C0.925645 13.6176 0.722486 13.4681 0.676354 13.2512C0.630693 13.0365 0.728593 12.8246 0.927211 12.7329C0.974344 12.7023 1.32911 12.4544 1.68429 11.7043C2.33661 10.3267 2.47353 8.38613 2.47353 7.00078C2.47353 4.50119 4.50816 2.46768 7.00902 2.46768C9.50396 2.46768 11.5348 4.49139 11.5445 6.98278C11.5447 6.98876 11.5448 6.99477 11.5448 7.00078C11.5448 8.38613 11.6817 10.3267 12.3341 11.7043C12.6892 12.4544 13.044 12.7024 13.0911 12.7329C13.2898 12.8246 13.3877 13.0365 13.342 13.2512C13.2959 13.468 13.0927 13.6176 12.8709 13.6176ZM13.0964 12.7362H13.0967H13.0964Z" fill="#67748E"/>
</g>
<defs>
<clipPath id="clip0_1_50">
<rect width="16.0083" height="16" fill="white" transform="translate(0.00585938)"/>
</clipPath>
</defs>
</svg>
