<svg width="17" height="16" viewBox="0 0 17 16" fill="none" xmlns="http://www.w3.org/2000/svg">
<path d="M7.06536 0C3.17824 0 0.015625 3.16097 0.015625 7.04606C0.015625 10.9314 3.17824 14.0921 7.06536 14.0921C10.9527 14.0921 14.1151 10.9314 14.1151 7.04606C14.1151 3.16097 10.9527 0 7.06536 0ZM7.06536 12.7913C3.8958 12.7913 1.31712 10.214 1.31712 7.04609C1.31712 3.87819 3.8958 1.30081 7.06536 1.30081C10.2349 1.30081 12.8136 3.87816 12.8136 7.04606C12.8136 10.214 10.2349 12.7913 7.06536 12.7913Z" fill="#A2ADD0"/>
<path d="M15.8333 14.8898L12.1023 11.1608C11.8481 10.9067 11.4364 10.9067 11.1821 11.1608C10.9279 11.4146 10.9279 11.8266 11.1821 12.0804L14.9131 15.8094C15.0402 15.9365 15.2066 16 15.3732 16C15.5395 16 15.7061 15.9365 15.8333 15.8094C16.0875 15.5556 16.0875 15.1436 15.8333 14.8898Z" fill="#A2ADD0"/>
</svg>
