<svg width="16" height="16" viewBox="0 0 16 16" fill="none" xmlns="http://www.w3.org/2000/svg">
<path d="M8.00782 6.10313C7.54063 6.10313 7.10313 6.28438 6.77188 6.61563C6.44219 6.94688 6.25938 7.38438 6.25938 7.85156C6.25938 8.31875 6.44219 8.75625 6.77188 9.0875C7.10313 9.41719 7.54063 9.6 8.00782 9.6C8.47501 9.6 8.91251 9.41719 9.24376 9.0875C9.57344 8.75625 9.75626 8.31875 9.75626 7.85156C9.75626 7.38438 9.57344 6.94688 9.24376 6.61563C9.08197 6.45259 8.88939 6.32333 8.67722 6.23535C8.46505 6.14737 8.23751 6.10242 8.00782 6.10313ZM14.45 9.78281L13.4281 8.90938C13.4766 8.6125 13.5016 8.30938 13.5016 8.00781C13.5016 7.70625 13.4766 7.40156 13.4281 7.10625L14.45 6.23281C14.5272 6.16673 14.5825 6.07871 14.6084 5.98047C14.6344 5.88222 14.6298 5.7784 14.5953 5.68281L14.5813 5.64219C14.3 4.85577 13.8786 4.12681 13.3375 3.49063L13.3094 3.45781C13.2437 3.38055 13.1561 3.32501 13.0582 3.29851C12.9603 3.27201 12.8567 3.2758 12.7609 3.30938L11.4922 3.76094C11.0234 3.37656 10.5016 3.07344 9.93595 2.8625L9.69063 1.53594C9.67212 1.436 9.62365 1.34407 9.55164 1.27234C9.47964 1.20062 9.38751 1.1525 9.28751 1.13438L9.24532 1.12656C8.43282 0.979688 7.57657 0.979688 6.76407 1.12656L6.72188 1.13438C6.62188 1.1525 6.52975 1.20062 6.45775 1.27234C6.38574 1.34407 6.33727 1.436 6.31876 1.53594L6.07188 2.86875C5.51161 3.08137 4.98969 3.38376 4.52657 3.76406L3.24844 3.30938C3.15277 3.27554 3.04906 3.27161 2.95109 3.29813C2.85313 3.32464 2.76556 3.38034 2.70001 3.45781L2.67188 3.49063C2.13171 4.12749 1.71043 4.85626 1.42813 5.64219L1.41407 5.68281C1.34376 5.87813 1.40157 6.09688 1.55938 6.23281L2.59376 7.11563C2.54532 7.40938 2.52188 7.70938 2.52188 8.00625C2.52188 8.30625 2.54532 8.60625 2.59376 8.89688L1.56251 9.77969C1.48531 9.84577 1.43006 9.93379 1.40411 10.032C1.37815 10.1303 1.38272 10.2341 1.4172 10.3297L1.43126 10.3703C1.71407 11.1563 2.13126 11.8828 2.67501 12.5219L2.70313 12.5547C2.76884 12.632 2.85642 12.6875 2.95432 12.714C3.05223 12.7405 3.15586 12.7367 3.25157 12.7031L4.5297 12.2484C4.99532 12.6313 5.51407 12.9344 6.07501 13.1438L6.32188 14.4766C6.34039 14.5765 6.38887 14.6684 6.46087 14.7402C6.53288 14.8119 6.625 14.86 6.72501 14.8781L6.7672 14.8859C7.58769 15.0336 8.42795 15.0336 9.24845 14.8859L9.29063 14.8781C9.39064 14.86 9.48276 14.8119 9.55477 14.7402C9.62677 14.6684 9.67525 14.5765 9.69376 14.4766L9.93907 13.15C10.5047 12.9375 11.0266 12.6359 11.4953 12.2516L12.7641 12.7031C12.8597 12.737 12.9635 12.7409 13.0614 12.7144C13.1594 12.6879 13.247 12.6322 13.3125 12.5547L13.3406 12.5219C13.8844 11.8797 14.3016 11.1563 14.5844 10.3703L14.5984 10.3297C14.6656 10.1359 14.6078 9.91875 14.45 9.78281ZM8.00782 10.5984C6.49063 10.5984 5.26095 9.36875 5.26095 7.85156C5.26095 6.33438 6.49063 5.10469 8.00782 5.10469C9.52501 5.10469 10.7547 6.33438 10.7547 7.85156C10.7547 9.36875 9.52501 10.5984 8.00782 10.5984Z" fill="#67748E"/>
</svg>
